<svg width="310" height="214" viewBox="0 0 310 214" fill="none" xmlns="http://www.w3.org/2000/svg">
<path d="M139.257 156.489L164.202 119.179C146.328 125.503 128.58 132.071 110.816 138.572L110.597 138.235L137.307 105.352L126.789 94.652C125.949 95.1073 111.412 111.051 106.704 116.574C101.66 122.527 87.6534 137.897 86.6949 138.496C86.5856 133.791 87.0565 129.221 87.1237 124.323L33.0562 159.339L32.8461 159.094C33.0815 158.816 33.2916 158.521 33.5356 158.251C36.1081 155.477 38.6807 152.72 41.2451 149.946C46.4015 144.364 51.5579 138.786 56.7145 133.21C62.9695 126.464 69.233 119.719 75.5049 112.974L89.5787 97.797L93.8747 93.1429L100.5 98.9522L126.562 70.6558C137.055 82.401 147.329 94.0703 157.779 105.782L166.245 98.0246L181.925 113.733L197.57 129.415L213.208 145.09L228.77 160.679L228.561 160.975L173.627 141.666C174.98 136.279 176.309 131.009 177.637 125.739L177.368 125.596L158.426 141.253L139.602 156.801L139.257 156.489Z" fill="url(#paint0_linear_4_11)"/>
<path d="M93.1011 85.9844L94.3701 84.6745L93.0273 83.366L91.7603 84.7484L93.1011 85.9844ZM100.197 92.8982L98.9277 94.2083L100.233 95.4804L101.502 94.1716L100.197 92.8982ZM31.7902 155.549C32.4712 154.806 32.4231 153.651 31.6828 152.968C30.9426 152.285 29.7904 152.333 29.1095 153.076L31.7902 155.549ZM33.1898 148.627C32.5088 149.37 32.557 150.525 33.2972 151.208C34.0375 151.891 35.1896 151.843 35.8705 151.1L33.1898 148.627ZM41.1167 145.38C41.7977 144.638 41.7494 143.483 41.0093 142.8C40.2689 142.117 39.1167 142.165 38.4359 142.908L41.1167 145.38ZM42.5159 138.459C41.8351 139.201 41.8832 140.357 42.6235 141.04C43.3638 141.722 44.5161 141.674 45.1969 140.932L42.5159 138.459ZM50.4426 135.212C51.1236 134.469 51.0754 133.314 50.3351 132.631C49.5947 131.948 48.4425 131.996 47.7617 132.739L50.4426 135.212ZM51.8416 128.29C51.1608 129.032 51.209 130.188 51.9493 130.871C52.6896 131.553 53.8417 131.505 54.5227 130.763L51.8416 128.29ZM59.7681 125.042C60.4489 124.3 60.4007 123.144 59.6603 122.462C58.9198 121.779 57.7678 121.827 57.087 122.57L59.7681 125.042ZM61.1665 118.12C60.4857 118.863 60.5341 120.018 61.2744 120.701C62.0147 121.384 63.167 121.336 63.8478 120.593L61.1665 118.12ZM69.0928 114.873C69.7737 114.13 69.7254 112.975 68.9849 112.292C68.2446 111.609 67.0924 111.657 66.4116 112.4L69.0928 114.873ZM70.4911 107.95C69.8103 108.693 69.8585 109.848 70.599 110.531C71.3395 111.214 72.4915 111.165 73.1724 110.423L70.4911 107.95ZM78.4171 104.702C79.0979 103.959 79.0495 102.804 78.309 102.121C77.5687 101.439 76.4165 101.487 75.7358 102.23L78.4171 104.702ZM79.8148 97.78C79.1342 98.5226 79.1826 99.6782 79.9231 100.361C80.6634 101.044 81.8156 100.995 82.4962 100.252L79.8148 97.78ZM87.7408 94.5311C88.4216 93.7884 88.373 92.6331 87.6325 91.9505C86.892 91.2677 85.74 91.3162 85.0594 92.0589L87.7408 94.5311ZM89.1382 87.609C88.4575 88.3516 88.5059 89.5072 89.2464 90.1898C89.9869 90.8724 91.139 90.8238 91.8198 90.0812L89.1382 87.609ZM93.8277 89.2389C94.5491 89.9418 95.702 89.9251 96.403 89.2016C97.1039 88.4781 97.0872 87.3219 96.3658 86.6189L93.8277 89.2389ZM99.4703 89.6437C98.7489 88.9408 97.5958 88.9575 96.8948 89.681C96.1941 90.4045 96.2107 91.5609 96.9321 92.2637L99.4703 89.6437ZM103.958 91.6383C104.659 90.915 104.643 89.7588 103.922 89.0556C103.201 88.3525 102.048 88.3689 101.347 89.0922L103.958 91.6383ZM105.165 85.1512C104.464 85.8749 104.481 87.0311 105.202 87.7341C105.924 88.4369 107.077 88.42 107.778 87.6965L105.165 85.1512ZM112.686 82.6263C113.387 81.9025 113.369 80.7461 112.647 80.0436C111.925 79.3412 110.773 79.3584 110.072 80.0824L112.686 82.6263ZM113.887 76.1382C113.187 76.8624 113.205 78.0188 113.927 78.7211C114.649 79.4232 115.802 79.4054 116.502 78.6812L113.887 76.1382ZM121.406 73.607C122.106 72.8825 122.088 71.7263 121.365 71.0244C120.643 70.3224 119.49 70.3409 118.79 71.0652L121.406 73.607ZM122.602 67.1181C121.902 67.8428 121.921 68.999 122.644 69.7007C123.366 70.4023 124.519 70.3835 125.219 69.6588L122.602 67.1181ZM29.167 158.409C30.0414 157.455 30.9158 156.502 31.7902 155.549L29.1095 153.076C28.2351 154.029 27.3607 154.982 26.4863 155.935L29.167 158.409ZM35.8705 151.1C37.6194 149.194 39.3681 147.287 41.1167 145.38L38.4359 142.908C36.6872 144.814 34.9385 146.721 33.1898 148.627L35.8705 151.1ZM45.1969 140.932C46.9456 139.025 48.6941 137.118 50.4426 135.212L47.7617 132.739C46.0132 134.646 44.2646 136.552 42.5159 138.459L45.1969 140.932ZM54.5227 130.763C56.2712 128.856 58.0197 126.949 59.7681 125.042L57.087 122.57C55.3386 124.476 53.5901 126.383 51.8416 128.29L54.5227 130.763ZM63.8478 120.593C65.5961 118.686 67.3447 116.779 69.0928 114.873L66.4116 112.4C64.6634 114.307 62.915 116.214 61.1665 118.12L63.8478 120.593ZM73.1724 110.423C74.9207 108.516 76.6689 106.609 78.4171 104.702L75.7358 102.23C73.9876 104.137 72.2393 106.044 70.4911 107.95L73.1724 110.423ZM82.4962 100.252C84.2446 98.3453 85.9928 96.4381 87.7408 94.5311L85.0594 92.0589C83.3112 93.9659 81.5632 95.8729 79.8148 97.78L82.4962 100.252ZM91.8198 90.0812C92.6939 89.1277 93.5678 88.174 94.4419 87.2205L91.7603 84.7484C90.8862 85.702 90.0123 86.6555 89.1382 87.609L91.8198 90.0812ZM91.8319 87.2944L93.8277 89.2389L96.3658 86.6189L94.3701 84.6745L91.8319 87.2944ZM96.9321 92.2637L98.9277 94.2083L101.466 91.5882L99.4703 89.6437L96.9321 92.2637ZM101.502 94.1716C102.321 93.3273 103.14 92.4829 103.958 91.6383L101.347 89.0922C100.528 89.9366 99.7097 90.7808 98.8911 91.6249L101.502 94.1716ZM107.778 87.6965C109.414 86.0071 111.05 84.3171 112.686 82.6263L110.072 80.0824C108.436 81.7729 106.801 83.4624 105.165 85.1512L107.778 87.6965ZM116.502 78.6812C118.137 76.9906 119.772 75.2992 121.406 73.607L118.79 71.0652C117.156 72.757 115.521 74.4482 113.887 76.1382L116.502 78.6812ZM125.219 69.6588C126.036 68.8128 126.852 67.9665 127.669 67.12L125.052 64.5797C124.235 65.4261 123.418 66.2721 122.602 67.1181L125.219 69.6588Z" fill="url(#paint1_linear_4_11)"/>
<path d="M125.326 60.0069C123.269 57.7019 121.36 55.2687 119.609 52.722C117.219 49.3193 115.198 45.6701 113.581 41.8369C112.097 38.3949 111.205 34.7259 110.941 30.9854C110.84 29.6061 110.899 28.2197 111.118 26.854C111.588 24.0693 112.807 21.4659 114.642 19.3239C116.478 17.182 118.862 15.5827 121.536 14.6981C124.211 13.8135 127.075 13.6772 129.822 14.3037C132.568 14.9302 135.092 16.2959 137.122 18.2538C139.016 20.0728 140.419 22.3444 141.199 24.8557C141.91 27.2729 142.085 29.817 141.712 32.3092C141.394 34.7704 140.784 37.1849 139.896 39.5013C138.426 43.3321 136.504 46.9724 134.17 50.3443C132.141 53.3347 129.893 56.1698 127.445 58.8265C126.923 59.3913 126.377 59.9394 125.763 60.5802C125.603 60.3441 125.469 60.167 125.326 60.0069ZM126.629 18.6417C124.493 18.5921 122.39 19.1792 120.587 20.3288C118.784 21.4784 117.362 23.1389 116.5 25.0997C115.639 27.0607 115.377 29.2338 115.748 31.344C116.119 33.4543 117.106 35.4068 118.584 36.9541C120.062 38.5013 121.965 39.5741 124.051 40.0362C126.137 40.4983 128.313 40.3292 130.304 39.55C132.294 38.771 134.009 37.4171 135.232 35.6597C136.455 33.9025 137.13 31.821 137.172 29.6785C137.211 26.8193 136.127 24.0595 134.154 21.9947C132.182 19.9298 129.479 18.7255 126.629 18.6417Z" fill="#63C0B9"/>
<path d="M126.369 68.1012C127.688 68.1012 128.757 67.029 128.757 65.7066C128.757 64.3842 127.688 63.312 126.369 63.312C125.05 63.312 123.981 64.3842 123.981 65.7066C123.981 67.029 125.05 68.1012 126.369 68.1012Z" fill="#EA5556"/>
<path d="M11.7466 174.906V187.589H8.8366V177.298H3.12605V187.589H0.216028V174.906H11.7466ZM20.3946 177.696C21.2988 177.696 22.1179 177.908 22.853 178.33C23.5998 178.741 24.1843 179.327 24.6056 180.088C25.0269 180.837 25.2381 181.713 25.2381 182.715C25.2381 183.718 25.0269 184.599 24.6056 185.36C24.1843 186.109 23.5998 186.695 22.853 187.118C22.1179 187.529 21.2988 187.734 20.3946 187.734C19.1541 187.734 18.1776 187.341 17.4669 186.556V191.104H14.6478V177.841H17.3408V178.964C18.0398 178.119 19.0573 177.696 20.3946 177.696ZM19.9068 185.415C20.6301 185.415 21.2196 185.173 21.678 184.69C22.1482 184.195 22.3828 183.536 22.3828 182.715C22.3828 181.894 22.1482 181.241 21.678 180.758C21.2196 180.263 20.6301 180.015 19.9068 180.015C19.1834 180.015 18.5872 180.263 18.118 180.758C17.6595 181.241 17.4308 181.894 17.4308 182.715C17.4308 183.536 17.6595 184.195 18.118 184.69C18.5872 185.173 19.1834 185.415 19.9068 185.415ZM31.7687 187.734C30.7443 187.734 29.8225 187.523 29.0034 187.1C28.196 186.665 27.5635 186.067 27.1061 185.306C26.6476 184.545 26.4189 183.681 26.4189 182.715C26.4189 181.749 26.6476 180.885 27.1061 180.124C27.5635 179.363 28.196 178.771 29.0034 178.348C29.8225 177.914 30.7443 177.696 31.7687 177.696C32.7922 177.696 33.7081 177.914 34.5155 178.348C35.3229 178.771 35.9554 179.363 36.4129 180.124C36.8703 180.885 37.1 181.749 37.1 182.715C37.1 183.681 36.8703 184.545 36.4129 185.306C35.9554 186.067 35.3229 186.665 34.5155 187.1C33.7081 187.523 32.7922 187.734 31.7687 187.734ZM31.7687 185.415C32.4911 185.415 33.0815 185.173 33.539 184.69C34.0092 184.195 34.2438 183.536 34.2438 182.715C34.2438 181.894 34.0092 181.241 33.539 180.758C33.0815 180.263 32.4911 180.015 31.7687 180.015C31.0454 180.015 30.4491 180.263 29.9789 180.758C29.5097 181.241 29.2742 181.894 29.2742 182.715C29.2742 183.536 29.5097 184.195 29.9789 184.69C30.4491 185.173 31.0454 185.415 31.7687 185.415ZM46.8281 180.16H41.8399V187.589H39.0384V177.841H46.8281V180.16ZM54.0509 177.696C54.9551 177.696 55.7742 177.908 56.5093 178.33C57.2561 178.741 57.8406 179.327 58.2619 180.088C58.6832 180.837 58.8944 181.713 58.8944 182.715C58.8944 183.718 58.6832 184.599 58.2619 185.36C57.8406 186.109 57.2561 186.695 56.5093 187.118C55.7742 187.529 54.9551 187.734 54.0509 187.734C52.8104 187.734 51.8339 187.341 51.1232 186.556V191.104H48.3041V177.841H50.9972V178.964C51.6961 178.119 52.7136 177.696 54.0509 177.696ZM53.5631 185.415C54.2864 185.415 54.8759 185.173 55.3343 184.69C55.8045 184.195 56.0391 183.536 56.0391 182.715C56.0391 181.894 55.8045 181.241 55.3343 180.758C54.8759 180.263 54.2864 180.015 53.5631 180.015C52.8397 180.015 52.2435 180.263 51.7743 180.758C51.3158 181.241 51.0871 181.894 51.0871 182.715C51.0871 183.536 51.3158 184.195 51.7743 184.69C52.2435 185.173 52.8397 185.415 53.5631 185.415ZM64.4886 177.696C65.9949 177.696 67.1513 178.059 67.9587 178.783C68.7662 179.496 69.1699 180.577 69.1699 182.027V187.589H66.5306V186.375C66.0008 187.281 65.0126 187.734 63.5668 187.734C62.82 187.734 62.169 187.607 61.6148 187.353C61.0732 187.1 60.6578 186.75 60.3685 186.303C60.0791 185.856 59.9344 185.348 59.9344 184.781C59.9344 183.875 60.2717 183.162 60.9461 182.643C61.6333 182.123 62.6871 181.864 64.1093 181.864H66.3498C66.3498 181.247 66.1631 180.776 65.7897 180.45C65.4163 180.112 64.8561 179.943 64.1093 179.943C63.5913 179.943 63.079 180.027 62.5727 180.197C62.0791 180.354 61.6578 180.571 61.3078 180.849L60.2961 178.874C60.8259 178.499 61.4584 178.21 62.1934 178.004C62.9402 177.799 63.7056 177.696 64.4886 177.696ZM64.2716 185.831C64.7535 185.831 65.1817 185.723 65.5551 185.505C65.9285 185.276 66.1934 184.944 66.3498 184.509V183.512H64.4163C63.2599 183.512 62.6812 183.893 62.6812 184.654C62.6812 185.016 62.82 185.306 63.0967 185.523C63.386 185.729 63.778 185.831 64.2716 185.831ZM81.1061 187.589V181.755L78.1971 186.647H77.0045L74.1668 181.737V187.589H71.6185V177.841H74.5647L77.6731 183.476L80.98 177.841H83.6183L83.6544 187.589H81.1061ZM95.8429 187.589V181.755L92.9339 186.647H91.7413L88.9036 181.737V187.589H86.3553V177.841H89.3015L92.4099 183.476L95.7168 177.841H98.3551L98.3912 187.589H95.8429ZM104.869 177.696C106.375 177.696 107.532 178.059 108.339 178.783C109.147 179.496 109.55 180.577 109.55 182.027V187.589H106.911V186.375C106.381 187.281 105.393 187.734 103.947 187.734C103.201 187.734 102.55 187.607 101.995 187.353C101.454 187.1 101.037 186.75 100.749 186.303C100.46 185.856 100.315 185.348 100.315 184.781C100.315 183.875 100.652 183.162 101.327 182.643C102.014 182.123 103.068 181.864 104.49 181.864H106.73C106.73 181.247 106.544 180.776 106.17 180.45C105.797 180.112 105.237 179.943 104.49 179.943C103.972 179.943 103.46 180.027 102.953 180.197C102.46 180.354 102.038 180.571 101.688 180.849L100.677 178.874C101.206 178.499 101.839 178.21 102.574 178.004C103.321 177.799 104.086 177.696 104.869 177.696ZM104.652 185.831C105.134 185.831 105.562 185.723 105.936 185.505C106.309 185.276 106.574 184.944 106.73 184.509V183.512H104.797C103.64 183.512 103.062 183.893 103.062 184.654C103.062 185.016 103.201 185.306 103.477 185.523C103.767 185.729 104.158 185.831 104.652 185.831ZM126.605 187.589V181.755L123.696 186.647H122.502L119.666 181.737V187.589H117.117V177.841H120.063L123.172 183.476L126.479 177.841H129.117L129.153 187.589H126.605ZM136.408 187.734C135.384 187.734 134.462 187.523 133.643 187.1C132.835 186.665 132.203 186.067 131.746 185.306C131.288 184.545 131.058 183.681 131.058 182.715C131.058 181.749 131.288 180.885 131.746 180.124C132.203 179.363 132.835 178.771 133.643 178.348C134.462 177.914 135.384 177.696 136.408 177.696C137.433 177.696 138.348 177.914 139.155 178.348C139.962 178.771 140.595 179.363 141.052 180.124C141.511 180.885 141.739 181.749 141.739 182.715C141.739 183.681 141.511 184.545 141.052 185.306C140.595 186.067 139.962 186.665 139.155 187.1C138.348 187.523 137.433 187.734 136.408 187.734ZM136.408 185.415C137.132 185.415 137.721 185.173 138.179 184.69C138.65 184.195 138.884 183.536 138.884 182.715C138.884 181.894 138.65 181.241 138.179 180.758C137.721 180.263 137.132 180.015 136.408 180.015C135.685 180.015 135.089 180.263 134.619 180.758C134.149 181.241 133.915 181.894 133.915 182.715C133.915 183.536 134.149 184.195 134.619 184.69C135.089 185.173 135.685 185.415 136.408 185.415ZM152.862 177.841V187.589H150.043V180.16H146.971L146.881 181.882C146.832 183.162 146.712 184.225 146.519 185.07C146.327 185.916 146.013 186.58 145.58 187.063C145.146 187.547 144.544 187.788 143.773 187.788C143.363 187.788 142.874 187.716 142.308 187.571L142.453 185.252C142.646 185.276 142.784 185.288 142.868 185.288C143.291 185.288 143.604 185.137 143.809 184.835C144.026 184.521 144.17 184.128 144.242 183.657C144.314 183.174 144.369 182.54 144.405 181.755L144.55 177.841H152.862ZM160.128 187.734C159.104 187.734 158.182 187.523 157.363 187.1C156.555 186.665 155.923 186.067 155.466 185.306C155.008 184.545 154.778 183.681 154.778 182.715C154.778 181.749 155.008 180.885 155.466 180.124C155.923 179.363 156.555 178.771 157.363 178.348C158.182 177.914 159.104 177.696 160.128 177.696C161.153 177.696 162.068 177.914 162.875 178.348C163.682 178.771 164.315 179.363 164.772 180.124C165.231 180.885 165.459 181.749 165.459 182.715C165.459 183.681 165.231 184.545 164.772 185.306C164.315 186.067 163.682 186.665 162.875 187.1C162.068 187.523 161.153 187.734 160.128 187.734ZM160.128 185.415C160.852 185.415 161.441 185.173 161.899 184.69C162.37 184.195 162.604 183.536 162.604 182.715C162.604 181.894 162.37 181.241 161.899 180.758C161.441 180.263 160.852 180.015 160.128 180.015C159.405 180.015 158.809 180.263 158.339 180.758C157.869 181.241 157.635 181.894 157.635 182.715C157.635 183.536 157.869 184.195 158.339 184.69C158.809 185.173 159.405 185.415 160.128 185.415ZM178.155 185.27V189.691H175.535V187.589H168.703V189.691H166.083V185.27H166.48C167.083 185.258 167.499 184.901 167.727 184.201C167.956 183.5 168.101 182.504 168.161 181.211L168.287 177.841H176.763V185.27H178.155ZM170.71 181.411C170.673 182.401 170.595 183.21 170.474 183.838C170.366 184.466 170.155 184.944 169.842 185.27H173.944V180.16H170.763L170.71 181.411ZM189.381 182.751C189.381 182.788 189.363 183.041 189.327 183.512H181.971C182.104 184.116 182.417 184.593 182.911 184.944C183.405 185.294 184.019 185.469 184.754 185.469C185.261 185.469 185.706 185.397 186.092 185.252C186.489 185.095 186.857 184.853 187.194 184.527L188.695 186.158C187.779 187.208 186.442 187.734 184.682 187.734C183.586 187.734 182.616 187.523 181.773 187.1C180.929 186.665 180.278 186.067 179.821 185.306C179.363 184.545 179.134 183.681 179.134 182.715C179.134 181.761 179.357 180.903 179.802 180.142C180.261 179.369 180.882 178.771 181.664 178.348C182.459 177.914 183.345 177.696 184.321 177.696C185.272 177.696 186.135 177.902 186.905 178.312C187.676 178.723 188.279 179.315 188.712 180.088C189.158 180.849 189.381 181.737 189.381 182.751ZM184.339 179.834C183.701 179.834 183.164 180.015 182.731 180.378C182.297 180.74 182.032 181.235 181.935 181.864H186.725C186.628 181.247 186.363 180.758 185.929 180.396C185.495 180.021 184.965 179.834 184.339 179.834ZM182.442 176.5C182.08 176.5 181.779 176.386 181.537 176.156C181.297 175.915 181.177 175.613 181.177 175.25C181.177 174.888 181.297 174.592 181.537 174.362C181.779 174.121 182.08 174 182.442 174C182.803 174 183.097 174.121 183.327 174.362C183.568 174.592 183.688 174.888 183.688 175.25C183.688 175.613 183.568 175.915 183.327 176.156C183.097 176.386 182.803 176.5 182.442 176.5ZM186.092 176.5C185.731 176.5 185.429 176.386 185.188 176.156C184.96 175.915 184.845 175.613 184.845 175.25C184.845 174.888 184.96 174.592 185.188 174.362C185.429 174.121 185.731 174 186.092 174C186.453 174 186.754 174.121 186.996 174.362C187.236 174.592 187.357 174.888 187.357 175.25C187.357 175.613 187.236 175.915 186.996 176.156C186.754 176.386 186.453 176.5 186.092 176.5ZM200.91 183.893H199.555V187.589H196.772V183.893H195.416L193.355 187.589H190.031L193.085 182.552L190.247 177.841H193.229L195.38 181.628H196.772V177.841H199.555V181.628H200.928L203.097 177.841H206.079L203.242 182.552L206.314 187.589H202.97L200.91 183.893ZM207.779 177.841H210.58V181.646H214.81V177.841H217.629V187.589H214.81V183.947H210.58V187.589H207.779V177.841ZM224.882 187.734C223.857 187.734 222.936 187.523 222.116 187.1C221.309 186.665 220.676 186.067 220.219 185.306C219.762 184.545 219.532 183.681 219.532 182.715C219.532 181.749 219.762 180.885 220.219 180.124C220.676 179.363 221.309 178.771 222.116 178.348C222.936 177.914 223.857 177.696 224.882 177.696C225.906 177.696 226.821 177.914 227.628 178.348C228.436 178.771 229.068 179.363 229.526 180.124C229.984 180.885 230.213 181.749 230.213 182.715C230.213 183.681 229.984 184.545 229.526 185.306C229.068 186.067 228.436 186.665 227.628 187.1C226.821 187.523 225.906 187.734 224.882 187.734ZM224.882 185.415C225.604 185.415 226.194 185.173 226.653 184.69C227.123 184.195 227.358 183.536 227.358 182.715C227.358 181.894 227.123 181.241 226.653 180.758C226.194 180.263 225.604 180.015 224.882 180.015C224.158 180.015 223.562 180.263 223.093 180.758C222.623 181.241 222.388 181.894 222.388 182.715C222.388 183.536 222.623 184.195 223.093 184.69C223.562 185.173 224.158 185.415 224.882 185.415ZM239.941 180.16H234.953V187.589H232.152V177.841H239.941V180.16ZM245.584 187.734C244.56 187.734 243.638 187.523 242.819 187.1C242.011 186.665 241.379 186.067 240.922 185.306C240.463 184.545 240.234 183.681 240.234 182.715C240.234 181.749 240.463 180.885 240.922 180.124C241.379 179.363 242.011 178.771 242.819 178.348C243.638 177.914 244.56 177.696 245.584 177.696C246.608 177.696 247.524 177.914 248.331 178.348C249.138 178.771 249.771 179.363 250.228 180.124C250.686 180.885 250.915 181.749 250.915 182.715C250.915 183.681 250.686 184.545 250.228 185.306C249.771 186.067 249.138 186.665 248.331 187.1C247.524 187.523 246.608 187.734 245.584 187.734ZM245.584 185.415C246.307 185.415 246.897 185.173 247.354 184.69C247.825 184.195 248.059 183.536 248.059 182.715C248.059 181.894 247.825 181.241 247.354 180.758C246.897 180.263 246.307 180.015 245.584 180.015C244.861 180.015 244.265 180.263 243.794 180.758C243.324 181.241 243.09 181.894 243.09 182.715C243.09 183.536 243.324 184.195 243.794 184.69C244.265 185.173 244.861 185.415 245.584 185.415ZM0 200.381H2.80054V206.179L7.53554 200.381H10.1201V210.129H7.31853V204.331L2.6021 210.129H0V200.381ZM22.5754 210.274C21.5392 210.274 20.6047 210.063 19.7738 209.64C18.9547 209.205 18.3096 208.607 17.8404 207.846C17.3819 207.085 17.1532 206.221 17.1532 205.255C17.1532 204.289 17.3819 203.425 17.8404 202.664C18.3096 201.903 18.9547 201.311 19.7738 200.888C20.6047 200.454 21.5392 200.236 22.5754 200.236C23.5988 200.236 24.4903 200.454 25.2498 200.888C26.0211 201.311 26.5812 201.921 26.9301 202.718L24.7435 203.896C24.2381 203.002 23.5089 202.555 22.5568 202.555C21.8217 202.555 21.2137 202.797 20.7318 203.28C20.2499 203.763 20.0084 204.422 20.0084 205.255C20.0084 206.089 20.2499 206.747 20.7318 207.23C21.2137 207.713 21.8217 207.955 22.5568 207.955C23.5206 207.955 24.2498 207.508 24.7435 206.614L26.9301 207.81C26.5812 208.583 26.0211 209.187 25.2498 209.622C24.4903 210.056 23.5988 210.274 22.5754 210.274ZM36.7775 202.7H33.4882V210.129H30.6867V202.7H27.3974V200.381H36.7775V202.7ZM48.1096 200.381L43.7177 210.727C43.272 211.85 42.7177 212.641 42.055 213.1C41.404 213.559 40.6151 213.789 39.6875 213.789C39.1811 213.789 38.6816 213.71 38.187 213.553C37.6934 213.396 37.2897 213.179 36.9769 212.901L38.0072 210.89C38.2232 211.083 38.4705 211.234 38.7481 211.343C39.0365 211.452 39.3199 211.506 39.5975 211.506C39.9827 211.506 40.2955 211.409 40.5369 211.216C40.7774 211.035 40.9944 210.727 41.187 210.292L41.2231 210.201L37.013 200.381H39.9221L42.6513 206.994L45.398 200.381H48.1096ZM59.6783 207.81V212.231H57.0576V210.129H50.2269V212.231H47.6062V207.81H48.0041C48.6062 207.798 49.0216 207.441 49.2504 206.741C49.4801 206.04 49.6247 205.044 49.6844 203.751L49.8114 200.381H58.2874V207.81H59.6783ZM52.2327 203.951C52.1966 204.941 52.1183 205.75 51.9981 206.378C51.8896 207.006 51.6785 207.484 51.3657 207.81H55.4673V202.7H52.2875L52.2327 203.951ZM70.9049 205.291C70.9049 205.328 70.8863 205.581 70.8502 206.052H63.4955C63.6274 206.656 63.9412 207.133 64.4348 207.484C64.9285 207.834 65.5433 208.009 66.2784 208.009C66.7838 208.009 67.2295 207.937 67.6156 207.792C68.0135 207.635 68.381 207.393 68.7182 207.067L70.2177 208.698C69.3018 209.748 67.9646 210.274 66.2061 210.274C65.1093 210.274 64.1396 210.063 63.2961 209.64C62.4525 209.205 61.8024 208.607 61.344 207.846C60.8865 207.085 60.6578 206.221 60.6578 205.255C60.6578 204.301 60.8807 203.443 61.3264 202.682C61.7839 201.909 62.4046 201.311 63.1876 200.888C63.9832 200.454 64.8689 200.236 65.8444 200.236C66.7965 200.236 67.6577 200.442 68.4289 200.852C69.2002 201.263 69.8023 201.855 70.2363 202.628C70.6821 203.389 70.9049 204.277 70.9049 205.291ZM65.862 202.374C65.2237 202.374 64.688 202.555 64.254 202.918C63.82 203.28 63.5551 203.775 63.4593 204.404H68.2481C68.1513 203.787 67.8864 203.298 67.4524 202.936C67.0194 202.561 66.4886 202.374 65.862 202.374ZM73.0662 200.381H75.8667V204.186H80.0963V200.381H82.9155V210.129H80.0963V206.487H75.8667V210.129H73.0662V200.381ZM94.361 200.381V210.129H91.5419V206.505C90.7227 206.916 89.8186 207.121 88.8313 207.121C87.5175 207.121 86.5234 206.825 85.8489 206.233C85.1862 205.629 84.8548 204.699 84.8548 203.443V200.381H87.6739V203.262C87.6739 203.854 87.8245 204.283 88.1265 204.548C88.4393 204.814 88.8851 204.947 89.4637 204.947C90.1988 204.947 90.8909 204.79 91.5419 204.476V200.381H94.361ZM106.52 205.291C106.52 205.328 106.502 205.581 106.465 206.052H99.1107C99.2427 206.656 99.5564 207.133 100.05 207.484C100.544 207.834 101.159 208.009 101.894 208.009C102.399 208.009 102.846 207.937 103.231 207.792C103.629 207.635 103.996 207.393 104.333 207.067L105.833 208.698C104.918 209.748 103.58 210.274 101.821 210.274C100.725 210.274 99.7549 210.063 98.9113 209.64C98.0677 209.205 97.4177 208.607 96.9592 207.846C96.5017 207.085 96.273 206.221 96.273 205.255C96.273 204.301 96.4959 203.443 96.9416 202.682C97.3991 201.909 98.0198 201.311 98.8028 200.888C99.5985 200.454 100.484 200.236 101.46 200.236C102.412 200.236 103.273 200.442 104.044 200.852C104.815 201.263 105.418 201.855 105.852 202.628C106.297 203.389 106.52 204.277 106.52 205.291ZM101.478 202.374C100.839 202.374 100.303 202.555 99.8692 202.918C99.4352 203.28 99.1703 203.775 99.0745 204.404H103.863C103.767 203.787 103.502 203.298 103.069 202.936C102.635 202.561 102.105 202.374 101.478 202.374ZM113.308 210.274C112.272 210.274 111.337 210.063 110.506 209.64C109.687 209.205 109.042 208.607 108.573 207.846C108.114 207.085 107.886 206.221 107.886 205.255C107.886 204.289 108.114 203.425 108.573 202.664C109.042 201.903 109.687 201.311 110.506 200.888C111.337 200.454 112.272 200.236 113.308 200.236C114.331 200.236 115.223 200.454 115.982 200.888C116.754 201.311 117.314 201.921 117.663 202.718L115.476 203.896C114.971 203.002 114.241 202.555 113.289 202.555C112.554 202.555 111.946 202.797 111.464 203.28C110.982 203.763 110.741 204.422 110.741 205.255C110.741 206.089 110.982 206.747 111.464 207.23C111.946 207.713 112.554 207.955 113.289 207.955C114.253 207.955 114.982 207.508 115.476 206.614L117.663 207.81C117.314 208.583 116.754 209.187 115.982 209.622C115.223 210.056 114.331 210.274 113.308 210.274ZM123.66 206.433H122.195V210.129H119.376V200.381H122.195V204.168H123.713L126.353 200.381H129.353L125.955 205.056L129.587 210.129H126.262L123.66 206.433ZM135.225 210.274C134.202 210.274 133.28 210.063 132.461 209.64C131.654 209.205 131.021 208.607 130.563 207.846C130.105 207.085 129.877 206.221 129.877 205.255C129.877 204.289 130.105 203.425 130.563 202.664C131.021 201.903 131.654 201.311 132.461 200.888C133.28 200.454 134.202 200.236 135.225 200.236C136.25 200.236 137.166 200.454 137.973 200.888C138.78 201.311 139.412 201.903 139.87 202.664C140.328 203.425 140.557 204.289 140.557 205.255C140.557 206.221 140.328 207.085 139.87 207.846C139.412 208.607 138.78 209.205 137.973 209.64C137.166 210.063 136.25 210.274 135.225 210.274ZM135.225 207.955C135.949 207.955 136.539 207.713 136.997 207.23C137.467 206.735 137.701 206.076 137.701 205.255C137.701 204.434 137.467 203.781 136.997 203.298C136.539 202.803 135.949 202.555 135.225 202.555C134.503 202.555 133.907 202.803 133.437 203.298C132.966 203.781 132.732 204.434 132.732 205.255C132.732 206.076 132.966 206.735 133.437 207.23C133.907 207.713 134.503 207.955 135.225 207.955ZM150.286 202.7H145.298V210.129H142.496V200.381H150.286V202.7ZM155.928 210.274C154.903 210.274 153.982 210.063 153.163 209.64C152.355 209.205 151.723 208.607 151.265 207.846C150.808 207.085 150.578 206.221 150.578 205.255C150.578 204.289 150.808 203.425 151.265 202.664C151.723 201.903 152.355 201.311 153.163 200.888C153.982 200.454 154.903 200.236 155.928 200.236C156.952 200.236 157.867 200.454 158.675 200.888C159.482 201.311 160.115 201.903 160.572 202.664C161.03 203.425 161.259 204.289 161.259 205.255C161.259 206.221 161.03 207.085 160.572 207.846C160.115 208.607 159.482 209.205 158.675 209.64C157.867 210.063 156.952 210.274 155.928 210.274ZM155.928 207.955C156.65 207.955 157.241 207.713 157.699 207.23C158.168 206.735 158.404 206.076 158.404 205.255C158.404 204.434 158.168 203.781 157.699 203.298C157.241 202.803 156.65 202.555 155.928 202.555C155.205 202.555 154.608 202.803 154.139 203.298C153.669 203.781 153.433 204.434 153.433 205.255C153.433 206.076 153.669 206.735 154.139 207.23C154.608 207.713 155.205 207.955 155.928 207.955ZM176.485 202.7H173.196V210.129H170.395V202.7H167.106V200.381H176.485V202.7ZM187.817 200.381L183.426 210.727C182.98 211.85 182.426 212.641 181.763 213.1C181.112 213.559 180.323 213.789 179.396 213.789C178.889 213.789 178.39 213.71 177.895 213.553C177.402 213.396 176.998 213.179 176.684 212.901L177.714 210.89C177.931 211.083 178.179 211.234 178.455 211.343C178.745 211.452 179.028 211.506 179.305 211.506C179.691 211.506 180.004 211.409 180.245 211.216C180.486 211.035 180.703 210.727 180.895 210.292L180.931 210.201L176.72 200.381H179.63L182.359 206.994L185.106 200.381H187.817ZM194.907 200.236C195.81 200.236 196.629 200.448 197.364 200.87C198.111 201.281 198.695 201.867 199.117 202.628C199.539 203.377 199.749 204.253 199.749 205.255C199.749 206.258 199.539 207.139 199.117 207.9C198.695 208.649 198.111 209.235 197.364 209.658C196.629 210.069 195.81 210.274 194.907 210.274C193.665 210.274 192.69 209.881 191.978 209.096V213.644H189.159V200.381H191.852V201.504C192.551 200.659 193.568 200.236 194.907 200.236ZM194.418 207.955C195.141 207.955 195.732 207.713 196.189 207.23C196.659 206.735 196.894 206.076 196.894 205.255C196.894 204.434 196.659 203.781 196.189 203.298C195.732 202.803 195.141 202.555 194.418 202.555C193.696 202.555 193.099 202.803 192.629 203.298C192.172 203.781 191.942 204.434 191.942 205.255C191.942 206.076 192.172 206.735 192.629 207.23C193.099 207.713 193.696 207.955 194.418 207.955ZM201.726 200.381H204.527V206.179L209.262 200.381H211.846V210.129H209.045V204.331L204.328 210.129H201.726V200.381ZM220.775 205.056C221.354 205.237 221.8 205.515 222.112 205.889C222.438 206.264 222.6 206.711 222.6 207.23C222.6 207.846 222.39 208.39 221.968 208.861C221.546 209.32 220.968 209.676 220.233 209.93C219.499 210.183 218.667 210.31 217.739 210.31C216.98 210.31 216.233 210.232 215.498 210.075C214.764 209.918 214.082 209.682 213.456 209.368L214.215 207.393C215.239 207.888 216.372 208.136 217.613 208.136C218.275 208.136 218.793 208.039 219.167 207.846C219.552 207.641 219.745 207.357 219.745 206.994C219.745 206.68 219.613 206.445 219.347 206.288C219.082 206.119 218.697 206.034 218.191 206.034H216.202V204.277H217.938C218.432 204.277 218.811 204.198 219.076 204.041C219.341 203.884 219.474 203.655 219.474 203.353C219.474 203.039 219.305 202.797 218.968 202.628C218.642 202.459 218.173 202.374 217.558 202.374C216.619 202.374 215.594 202.598 214.486 203.045L213.8 201.088C215.149 200.496 216.462 200.2 217.739 200.2C218.619 200.2 219.402 200.309 220.088 200.526C220.787 200.744 221.335 201.064 221.733 201.486C222.131 201.897 222.329 202.38 222.329 202.936C222.329 203.395 222.191 203.812 221.914 204.186C221.636 204.548 221.257 204.838 220.775 205.056ZM234.14 210.129V204.295L231.23 209.187H230.037L227.199 204.277V210.129H224.651V200.381H227.597L230.706 206.016L234.013 200.381H236.652L236.688 210.129H234.14ZM243.165 200.236C244.671 200.236 245.828 200.599 246.635 201.323C247.442 202.036 247.846 203.117 247.846 204.567V210.129H245.208V208.915C244.677 209.821 243.69 210.274 242.244 210.274C241.496 210.274 240.846 210.147 240.292 209.893C239.749 209.64 239.334 209.29 239.045 208.843C238.755 208.396 238.611 207.888 238.611 207.321C238.611 206.415 238.948 205.702 239.623 205.183C240.31 204.663 241.364 204.404 242.786 204.404H245.027C245.027 203.787 244.84 203.316 244.467 202.99C244.092 202.652 243.532 202.483 242.786 202.483C242.268 202.483 241.755 202.567 241.25 202.737C240.755 202.894 240.334 203.111 239.984 203.389L238.972 201.414C239.502 201.039 240.136 200.75 240.87 200.544C241.617 200.339 242.382 200.236 243.165 200.236ZM242.949 208.371C243.431 208.371 243.858 208.263 244.231 208.045C244.605 207.816 244.87 207.484 245.027 207.049V206.052H243.093C241.936 206.052 241.358 206.433 241.358 207.194C241.358 207.556 241.496 207.846 241.774 208.063C242.063 208.269 242.454 208.371 242.949 208.371Z" fill="#00A19A"/>
<defs>
<linearGradient id="paint0_linear_4_11" x1="219.683" y1="78.5899" x2="20.4775" y2="242.694" gradientUnits="userSpaceOnUse">
<stop offset="0.26" stop-color="#68C0BC"/>
<stop offset="0.53" stop-color="#9CABD8"/>
<stop offset="0.8" stop-color="#E95255"/>
</linearGradient>
<linearGradient id="paint1_linear_4_11" x1="26.5655" y1="111.507" x2="127.655" y2="111.507" gradientUnits="userSpaceOnUse">
<stop offset="0.2" stop-color="#E95255"/>
<stop offset="0.47" stop-color="#9CABD8"/>
<stop offset="0.74" stop-color="#68C0BC"/>
</linearGradient>
</defs>
</svg>
