<svg width="29" height="22" viewBox="0 0 29 22" fill="none" xmlns="http://www.w3.org/2000/svg">
<g clip-path="url(#clip0_38_451)">
<path d="M28.0115 3.01199C26.9622 3.01199 25.913 3.01199 24.8637 3.01199C24.7116 3.01199 24.5747 3.01199 24.4227 3.01199C23.9208 3.01199 23.4494 3.46224 23.4646 3.97459C23.495 4.50247 23.8752 4.95271 24.4227 4.95271C25.4719 4.95271 26.5212 4.95271 27.5705 4.95271C27.7226 4.95271 27.8595 4.95271 28.0115 4.95271C28.5134 4.95271 28.9848 4.50247 28.9696 3.97459C28.9392 3.46224 28.5438 3.01199 28.0115 3.01199Z" fill="#63C0B9"/>
<path d="M18.3246 3.01199C13.2454 3.01199 8.15103 3.01199 3.07185 3.01199C2.35711 3.01199 1.62717 3.01199 0.912433 3.01199C-0.304138 3.01199 -0.319345 4.95271 0.912433 4.95271C5.99161 4.95271 11.086 4.95271 16.1652 4.95271C16.8799 4.95271 17.6099 4.95271 18.3246 4.95271C19.5564 4.95271 19.5564 3.01199 18.3246 3.01199Z" fill="#63C0B9"/>
<path d="M28.0572 10.0452C22.5826 10.0452 17.108 10.0452 11.6487 10.0452C10.8731 10.0452 10.0975 10.0452 9.32198 10.0452C8.10541 10.0452 8.0902 11.9859 9.32198 11.9859C14.7965 11.9859 20.2711 11.9859 25.7305 11.9859C26.506 11.9859 27.2816 11.9859 28.0572 11.9859C29.2889 11.9859 29.2889 10.0452 28.0572 10.0452Z" fill="#63C0B9"/>
<path d="M3.23913 10.0452C2.57001 10.0452 1.9009 10.0452 1.24699 10.0452C1.15575 10.0452 1.06451 10.0452 0.958057 10.0452C0.714743 10.0452 0.456221 10.1538 0.288943 10.3246C0.121665 10.4954 7.49994e-06 10.7749 0.0152146 11.0233C0.0456289 11.5512 0.425807 12.0014 0.973264 12.0014C1.64238 12.0014 2.31149 12.0014 2.9654 12.0014C3.05664 12.0014 3.14788 12.0014 3.25433 12.0014C3.49765 12.0014 3.75617 11.8927 3.92345 11.7219C4.07552 11.5356 4.21238 11.2562 4.19718 11.0233C4.16676 10.4954 3.77138 10.0452 3.23913 10.0452Z" fill="#63C0B9"/>
<path d="M28.042 16.9697C26.9775 16.9697 25.9282 16.9697 24.8637 16.9697C24.7116 16.9697 24.5595 16.9697 24.4227 16.9697C23.9208 16.9697 23.4494 17.4199 23.4646 17.9478C23.495 18.4757 23.8752 18.9259 24.4227 18.9259C25.4872 18.9259 26.5364 18.9259 27.6009 18.9259C27.753 18.9259 27.9051 18.9259 28.042 18.9259C28.5438 18.9259 29.0152 18.4757 29 17.9478C28.9696 17.4199 28.5742 16.9697 28.042 16.9697Z" fill="#63C0B9"/>
<path d="M18.3246 16.9697C13.2454 16.9697 8.16623 16.9697 3.10226 16.9697C2.38752 16.9697 1.67279 16.9697 0.942843 16.9697C-0.273727 16.9697 -0.288934 18.9104 0.942843 18.9104C6.02203 18.9104 11.1012 18.9104 16.1652 18.9104C16.8799 18.9104 17.5947 18.9104 18.3246 18.9104C19.5564 18.9104 19.5564 16.9697 18.3246 16.9697Z" fill="#63C0B9"/>
<path d="M23.4798 17.9478C23.4798 18.0409 23.4798 18.1186 23.4646 18.2117C23.4494 18.398 23.4646 18.2428 23.4646 18.2117C23.4342 18.3515 23.4038 18.4912 23.3734 18.6154C23.3429 18.693 23.3277 18.7707 23.2973 18.8483C23.3125 18.8172 23.3734 18.6775 23.2973 18.8483C23.2213 18.988 23.1453 19.1277 23.054 19.2675C22.9324 19.4693 23.1453 19.2054 23.0388 19.2985C22.9932 19.3296 22.9476 19.4072 22.9019 19.4538C22.8715 19.4848 22.8259 19.5314 22.7955 19.5625C22.7651 19.578 22.5674 19.7488 22.7499 19.6246C22.6434 19.7022 22.537 19.7798 22.4153 19.8419C22.3697 19.873 22.3241 19.8885 22.2784 19.9196C22.1872 19.9661 22.1872 19.9661 22.2784 19.9196C22.248 19.9351 22.2024 19.9506 22.172 19.9661C22.0351 20.0127 21.9135 20.0438 21.7766 20.0748C21.731 20.0903 21.5485 20.1059 21.7462 20.0903C21.6702 20.0903 21.6093 20.1059 21.5333 20.1059C21.3964 20.1059 21.2444 20.1059 21.1075 20.0903C20.9554 20.0903 21.3204 20.1369 21.0771 20.0903C21.001 20.0748 20.9098 20.0593 20.8338 20.0282C20.7577 20.0127 20.6817 19.9817 20.6057 19.9506C20.4536 19.873 20.56 19.9351 20.6057 19.9506C20.484 19.8885 20.3623 19.8264 20.2559 19.7488C20.1951 19.7177 20.1494 19.6711 20.0886 19.6401C19.967 19.5625 20.2407 19.7798 20.0582 19.609C19.9365 19.5004 19.8301 19.3917 19.7236 19.2675C19.602 19.1277 19.7084 19.2364 19.7236 19.2675C19.678 19.2054 19.6324 19.1277 19.5868 19.0656C19.5564 19.0191 19.526 18.9725 19.5107 18.9259C19.4955 18.8949 19.3891 18.6464 19.4651 18.8638C19.4195 18.7396 19.3739 18.5999 19.3435 18.4757C19.3283 18.4136 19.3131 18.367 19.3131 18.3049C19.2978 18.1962 19.2978 18.1962 19.3131 18.3049C19.3131 18.2583 19.2978 18.2117 19.2978 18.1807C19.2826 18.0565 19.2826 17.9167 19.2978 17.7925C19.2978 17.7615 19.3435 17.482 19.2978 17.7149C19.3131 17.6528 19.3131 17.6062 19.3283 17.5441C19.3587 17.4044 19.4043 17.2802 19.4499 17.1404C19.526 16.892 19.3587 17.2957 19.4803 17.0783C19.526 17.0007 19.5564 16.9386 19.602 16.861C19.6324 16.8144 19.6932 16.7523 19.7084 16.6902C19.7541 16.566 19.5716 16.8299 19.7236 16.6591C19.8149 16.5505 19.9061 16.4573 19.9974 16.3642C19.9974 16.3642 20.1951 16.1934 20.0886 16.2865C19.9822 16.3797 20.1799 16.2244 20.1799 16.2244C20.3167 16.1313 20.4536 16.0536 20.6057 15.9915C20.4384 16.0536 20.5752 16.0071 20.6057 15.9915C20.6817 15.9605 20.7577 15.945 20.8338 15.9139C20.8794 15.8984 20.9402 15.8829 20.9858 15.8673C20.9858 15.8673 21.2444 15.8208 21.1075 15.8363C20.9554 15.8518 21.2292 15.8208 21.2292 15.8208C21.3052 15.8208 21.366 15.8208 21.4421 15.8208C21.5181 15.8208 21.5789 15.8208 21.655 15.8363C21.8831 15.8518 21.5333 15.7897 21.731 15.8518C21.8831 15.8984 22.0503 15.9294 22.2024 15.9915C22.4305 16.0692 22.1264 15.9294 22.2328 16.0071C22.3089 16.0692 22.4001 16.1002 22.4761 16.1468C22.5218 16.1778 22.5674 16.2089 22.613 16.24C22.6586 16.271 22.7042 16.3021 22.7499 16.3331C22.6586 16.271 22.6586 16.271 22.7347 16.3331C22.8259 16.4263 22.9171 16.5194 23.0084 16.6126C23.1909 16.7989 22.9171 16.4573 23.054 16.6747C23.0996 16.7368 23.1453 16.8144 23.1909 16.8765C23.2365 16.9541 23.2669 17.0162 23.3125 17.0939C23.4038 17.2647 23.2821 16.9541 23.3429 17.156C23.3886 17.3112 23.4342 17.4665 23.4798 17.6373C23.495 17.6838 23.495 17.8236 23.4798 17.6373C23.4646 17.7149 23.4798 17.8236 23.4798 17.9478C23.4798 18.4601 23.9056 18.9414 24.4379 18.9259C24.9397 18.9104 25.3959 18.5067 25.3959 17.9478C25.3655 16.2244 24.3162 14.7184 22.7499 14.1129C21.2444 13.5229 19.3891 14.0353 18.3702 15.3084C17.2905 16.6436 17.0928 18.5378 17.9748 20.0282C18.8568 21.5187 20.5448 22.2329 22.2176 21.9379C24.0729 21.5963 25.3959 19.8264 25.4111 17.9478C25.4111 17.4354 24.9701 16.9541 24.4531 16.9697C23.9056 17.0007 23.4798 17.4044 23.4798 17.9478Z" fill="#63C0B9"/>
<path d="M8.37914 11.0233C8.37914 11.1164 8.37914 11.1941 8.36393 11.2872C8.34872 11.4735 8.36393 11.3183 8.36393 11.2872C8.34872 11.4114 8.31831 11.5356 8.27269 11.6754C8.24227 11.753 8.22706 11.8306 8.19665 11.9082C8.21186 11.8772 8.27269 11.7375 8.19665 11.9082C8.12061 12.048 8.04458 12.1877 7.95334 12.3274C7.81647 12.5138 8.02937 12.2653 7.92292 12.343C7.8773 12.3895 7.83168 12.4516 7.78606 12.4982C7.75564 12.5293 7.72523 12.5759 7.67961 12.6069C7.6644 12.638 7.4515 12.8087 7.63399 12.669C7.52754 12.7466 7.42109 12.8243 7.29943 12.8864C7.25381 12.9174 7.20819 12.9329 7.16256 12.964C7.07132 13.0106 7.07132 13.0106 7.16256 12.964C7.13215 12.9795 7.08653 12.995 7.05611 13.0106C6.91925 13.0572 6.79759 13.0882 6.66073 13.1193C6.61511 13.1348 6.41742 13.1503 6.63032 13.1348C6.55428 13.1348 6.49345 13.1503 6.41742 13.1503C6.28055 13.1503 6.14369 13.1503 5.99162 13.1348C5.83954 13.1348 6.20452 13.1814 5.9612 13.1348C5.88517 13.1193 5.80913 13.1037 5.71789 13.0727C5.64185 13.0572 5.56582 13.0261 5.48978 12.995C5.33771 12.9174 5.44416 12.9795 5.48978 12.995C5.38333 12.9329 5.26167 12.8708 5.14002 12.8087C5.0944 12.7622 5.03357 12.7311 4.97274 12.6845C4.85108 12.6069 5.12481 12.8398 4.94232 12.6535C4.83587 12.5448 4.72942 12.4361 4.62297 12.3119C4.65339 12.3585 4.74463 12.4361 4.62297 12.3119C4.57735 12.2498 4.53173 12.1877 4.50132 12.1101C4.4709 12.0635 4.44049 12.0169 4.41007 11.9703C4.39487 11.9393 4.28842 11.6909 4.37966 11.9082C4.33404 11.784 4.28842 11.6443 4.258 11.5201C4.2428 11.458 4.22759 11.4114 4.21238 11.3493C4.19717 11.2406 4.19717 11.2406 4.21238 11.3493C4.21238 11.3027 4.19717 11.2717 4.19717 11.2251C4.18197 11.1009 4.18197 10.9612 4.19717 10.837C4.19717 10.8059 4.2428 10.5265 4.19717 10.7593C4.21238 10.7128 4.22759 10.6507 4.22759 10.5886C4.258 10.4644 4.30362 10.3246 4.34925 10.2004C4.42528 9.952 4.258 10.3557 4.37966 10.1228C4.42528 10.0452 4.4557 9.98305 4.50132 9.90542C4.53173 9.84332 4.56215 9.79674 4.60777 9.73464C4.63818 9.68806 4.74463 9.56386 4.62297 9.70359C4.71422 9.61043 4.80546 9.50175 4.8967 9.4086C4.94232 9.36202 5.00315 9.31544 5.04877 9.26887C5.15522 9.17571 4.86629 9.39307 5.07919 9.26887C5.21605 9.19124 5.35292 9.09808 5.48978 9.03598C5.3225 9.09808 5.45937 9.05151 5.48978 9.03598C5.56582 9.00493 5.64185 8.97388 5.71789 8.95835C5.76351 8.94283 5.82434 8.9273 5.86996 8.91177C5.86996 8.91177 6.12848 8.8652 5.99162 8.88072C5.83954 8.89625 6.11327 8.8652 6.11327 8.8652C6.18931 8.8652 6.25014 8.8652 6.32617 8.8652C6.40221 8.8652 6.46304 8.8652 6.53907 8.88072C6.76718 8.89625 6.41742 8.84967 6.61511 8.89625C6.76718 8.94283 6.93446 8.97388 7.08653 9.03598C7.31464 9.11361 7.01049 8.97388 7.11694 9.05151C7.19298 9.11361 7.28422 9.14466 7.36026 9.19124C7.40588 9.20676 7.4515 9.23782 7.49712 9.26887C7.58836 9.33097 7.58836 9.33097 7.49712 9.25334C7.54274 9.28439 7.58837 9.31545 7.61878 9.36202C7.72523 9.45518 7.81647 9.54833 7.90771 9.64149C8.07499 9.82779 7.81647 9.48623 7.95334 9.70359C7.99896 9.76569 8.04458 9.84332 8.0902 9.90542C8.13582 9.98305 8.16624 10.0452 8.21186 10.1228C8.3031 10.2936 8.18144 9.98305 8.24227 10.2004C8.28789 10.3557 8.33351 10.5265 8.37914 10.6817C8.39434 10.7283 8.39434 10.868 8.37914 10.6817C8.36393 10.7904 8.37914 10.8991 8.37914 11.0233C8.37914 11.5356 8.80494 12.0169 9.33718 12.0014C9.83902 11.9703 10.28 11.5667 10.28 11.0233C10.2496 9.28439 9.21553 7.77839 7.63399 7.17289C6.12848 6.58291 4.27321 7.09526 3.25433 8.36837C2.18983 9.70359 1.97693 11.5977 2.85895 13.0882C3.72575 14.5942 5.41374 15.3084 7.08653 15.0134C8.9418 14.6718 10.2496 12.9019 10.28 11.0233C10.28 10.5109 9.83902 10.0296 9.32198 10.0452C8.80494 10.0762 8.37914 10.4799 8.37914 11.0233Z" fill="#63C0B9"/>
<path d="M23.4798 3.99012C23.4798 4.08328 23.4798 4.16091 23.4798 4.25406C23.4798 4.28511 23.4342 4.56458 23.4798 4.33169C23.4646 4.39379 23.4494 4.47142 23.4342 4.53353C23.4038 4.67326 23.3582 4.79746 23.3125 4.92167C23.2669 5.07693 23.419 4.75089 23.2973 4.96825C23.2517 5.04588 23.2213 5.10798 23.1757 5.18561C23.1301 5.26324 23.0844 5.32534 23.0388 5.38744C22.9476 5.5427 23.0236 5.41849 23.0388 5.38744C22.9476 5.49612 22.8411 5.6048 22.7347 5.71348C22.7043 5.74453 22.5522 5.86874 22.7195 5.74453C22.6738 5.79111 22.613 5.82216 22.5522 5.85321C22.4305 5.93084 22.2937 6.00847 22.172 6.07058C22.3545 5.97742 22.0199 6.11715 21.9439 6.1482C21.8679 6.16373 21.7918 6.17926 21.7006 6.21031C21.4573 6.27241 21.8222 6.21031 21.6702 6.21031C21.5333 6.21031 21.3964 6.21031 21.2596 6.21031C21.1835 6.21031 21.1227 6.19478 21.0467 6.19478C21.2596 6.22583 21.0163 6.17926 20.9706 6.17926C20.8338 6.1482 20.7121 6.10163 20.5753 6.05505C20.3319 5.97742 20.7273 6.1482 20.4992 6.024C20.4384 5.99295 20.3776 5.96189 20.3167 5.93084C20.2559 5.89979 20.1951 5.86874 20.1495 5.82216C20.1495 5.82216 19.9366 5.66691 20.0582 5.76006C20.1647 5.85321 19.967 5.68243 19.967 5.68243C19.9061 5.62033 19.8453 5.57375 19.7997 5.51165C19.7389 5.44954 19.6932 5.38744 19.6476 5.32534C19.7693 5.4806 19.6628 5.34086 19.6324 5.29429C19.5716 5.18561 19.5108 5.04588 19.4347 4.9372C19.3587 4.82851 19.4956 5.13903 19.4195 4.90614C19.4043 4.84404 19.3739 4.78194 19.3587 4.70431C19.3435 4.64221 19.3283 4.56458 19.3131 4.50247C19.2979 4.42485 19.2674 4.25406 19.2979 4.42484C19.2826 4.30064 19.2827 4.16091 19.2827 4.0367C19.2827 3.99012 19.2827 3.94355 19.2827 3.89697C19.2827 3.89697 19.3131 3.61751 19.2979 3.77276C19.2826 3.92802 19.3283 3.64856 19.3283 3.64856C19.3435 3.58645 19.3587 3.50883 19.3739 3.44672C19.3891 3.38462 19.4195 3.32252 19.4347 3.24489C19.4955 3.04305 19.3739 3.35357 19.4651 3.18278C19.5412 3.05858 19.6324 2.91885 19.6932 2.79464C19.7389 2.67043 19.5564 2.9499 19.7085 2.76359C19.7541 2.71701 19.7997 2.65491 19.8453 2.60833C19.8909 2.56175 19.9366 2.51518 19.9822 2.4686C19.9822 2.4686 20.1799 2.29782 20.0734 2.39097C19.967 2.48412 20.1647 2.32887 20.1647 2.32887C20.2407 2.28229 20.3167 2.22019 20.408 2.18914C20.4688 2.15808 20.5296 2.12703 20.5905 2.09598C20.408 2.17361 20.5753 2.09598 20.6209 2.08046C20.7577 2.03388 20.8794 2.00283 21.0163 1.97177C21.0619 1.95625 21.2444 1.94072 21.0467 1.95625C21.1227 1.95625 21.1835 1.94072 21.2596 1.94072C21.3356 1.94072 21.3964 1.94072 21.4725 1.94072C21.5029 1.94072 21.7918 1.97177 21.6854 1.95625C21.5333 1.94072 21.807 1.9873 21.807 1.9873C21.8831 2.00283 21.9591 2.03388 22.0503 2.0494C22.1264 2.08046 22.2024 2.09598 22.2785 2.12703C22.0808 2.0494 22.3089 2.15808 22.3393 2.17361C22.4761 2.25124 22.613 2.32887 22.7499 2.43755C22.5674 2.29782 22.7803 2.4686 22.7955 2.49965C22.8563 2.56175 22.9172 2.60833 22.9628 2.67043C23.0084 2.71701 23.054 2.77911 23.0996 2.82569C23.1453 2.87227 23.1301 2.87227 23.0692 2.79464C23.0996 2.84122 23.1301 2.88779 23.1605 2.93437C23.1909 2.98095 23.2213 3.02753 23.2365 3.0741C23.2517 3.10516 23.4038 3.41567 23.3125 3.21384C23.3734 3.36909 23.419 3.52435 23.4494 3.69513C23.4646 3.75724 23.4646 3.80381 23.4798 3.86592C23.4342 3.58645 23.4798 3.94355 23.4798 3.99012C23.495 4.50247 23.9056 4.98377 24.4379 4.96825C24.9397 4.95272 25.4111 4.53352 25.3959 3.99012C25.3199 2.25124 24.225 0.729714 22.5978 0.186312C20.9554 -0.357089 19.1458 0.326044 18.1421 1.72336C17.1993 3.02753 17.1689 4.90614 18.0357 6.25688C18.9785 7.73183 20.7425 8.46154 22.4153 8.02682C24.2098 7.56105 25.4111 5.85321 25.4111 3.99012C25.4111 3.47777 24.9701 2.99647 24.4531 3.02753C23.9208 3.04305 23.4798 3.44672 23.4798 3.99012Z" fill="#63C0B9"/>
</g>
<defs>
<clipPath id="clip0_38_451">
<rect width="29" height="22" fill="white"/>
</clipPath>
</defs>
</svg>
